<svg xmlns="http://www.w3.org/2000/svg" viewBox="0 0 32 32">
  <path d="M16 2C16 2 8 10 8 18c0 4.4 3.6 8 8 8s8-3.6 8-8C24 10 16 2 16 2z" fill="#1a3a2a"/>
  <path d="M16 6c0 0-5 6-5 12c0 2.8 2.2 5 5 5s5-2.2 5-5C21 12 16 6 16 6z" fill="#2d5a3f"/>
  <line x1="16" y1="12" x2="16" y2="24" stroke="#7a9e7e" stroke-width="1.2" stroke-linecap="round"/>
  <line x1="16" y1="16" x2="13" y2="14" stroke="#7a9e7e" stroke-width="1" stroke-linecap="round"/>
  <line x1="16" y1="19" x2="19" y2="17" stroke="#7a9e7e" stroke-width="1" stroke-linecap="round"/>
</svg>
